HIERARCHY
ROOT Hips
{
	OFFSET 0.000000 0.000000 0.000000
	CHANNELS 6 Xposition Yposition Zposition Zrotation Yrotation Xrotation 
	JOINT LHipJoint
	{
		OFFSET 0.000000 0.000000 0.000000
		CHANNELS 3 Zrotation Yrotation Xrotation
		JOINT LeftUpLeg
		{
			OFFSET 1.363060 -1.794630 0.839290
			CHANNELS 3 Zrotation Yrotation Xrotation
			JOINT LeftLeg
			{
				OFFSET 2.448110 -6.726130 0.000000
				CHANNELS 3 Zrotation Yrotation Xrotation
				JOINT LeftFoot
				{
					OFFSET 2.562200 -7.039590 0.000000
					CHANNELS 3 Zrotation Yrotation Xrotation
					JOINT LeftToeBase
					{
						OFFSET 0.157640 -0.433110 2.322550
						CHANNELS 3 Zrotation Yrotation Xrotation
						End Site
						{
							OFFSET 0.000000 0.000000 0.000000
						}
					}
				}
			}
		}
	}
	JOINT RHipJoint
	{
		OFFSET 0.000000 0.000000 0.000000
		CHANNELS 3 Zrotation Yrotation Xrotation
		JOINT RightUpLeg
		{
			OFFSET -1.305520 -1.794630 0.839290
			CHANNELS 3 Zrotation Yrotation Xrotation
			JOINT RightLeg
			{
				OFFSET -2.542530 -6.985550 0.000000
				CHANNELS 3 Zrotation Yrotation Xrotation
				JOINT RightFoot
				{
					OFFSET -2.568260 -7.056230 0.000000
					CHANNELS 3 Zrotation Yrotation Xrotation
					JOINT RightToeBase
					{
						OFFSET -0.164730 -0.452590 2.363150
						CHANNELS 3 Zrotation Yrotation Xrotation
						End Site
						{
							OFFSET 0.000000 0.000000 0.000000
						}
					}
				}
			}
		}
	}
	JOINT LowerBack
	{
		OFFSET 0.000000 0.000000 0.000000
		CHANNELS 3 Zrotation Yrotation Xrotation
		JOINT Spine
		{
			OFFSET 0.028270 2.035590 -0.193380
			CHANNELS 3 Zrotation Yrotation Xrotation
			JOINT Spine1
			{
				OFFSET 0.056720 2.048850 -0.042750
				CHANNELS 3 Zrotation Yrotation Xrotation
				JOINT Neck
				{
					OFFSET 0.000000 0.000000 0.000000
					CHANNELS 3 Zrotation Yrotation Xrotation
					JOINT Neck1
					{
						OFFSET -0.054170 1.746240 0.172020
						CHANNELS 3 Zrotation Yrotation Xrotation
						JOINT Head
						{
							OFFSET 0.104070 1.761360 -0.123970
							CHANNELS 3 Zrotation Yrotation Xrotation
							End Site
							{
								OFFSET 0.000000 0.000000 0.000000
							}
						}
					}
				}
				JOINT LeftShoulder
				{
					OFFSET 0.000000 0.000000 0.000000
					CHANNELS 3 Zrotation Yrotation Xrotation
					JOINT LeftArm
					{
						OFFSET 3.362410 1.200890 -0.311210
						CHANNELS 3 Zrotation Yrotation Xrotation
						JOINT LeftForeArm
						{
							OFFSET 4.983000 -0.000000 -0.000000
							CHANNELS 3 Zrotation Yrotation Xrotation
							JOINT LeftHand
							{
								OFFSET 3.483560 -0.000000 -0.000000
								CHANNELS 3 Zrotation Yrotation Xrotation
								JOINT LeftFingerBase
								{
									OFFSET 0.000000 0.000000 0.000000
									CHANNELS 3 Zrotation Yrotation Xrotation
									JOINT LeftHandIndex1
									{
										OFFSET 0.715260 -0.000000 -0.000000
										CHANNELS 3 Zrotation Yrotation Xrotation
										End Site
										{
											OFFSET 0.000000 0.000000 0.000000
										}
									}
								}
								JOINT LThumb
								{
									OFFSET 0.000000 0.000000 0.000000
									CHANNELS 3 Zrotation Yrotation Xrotation
									End Site
									{
										OFFSET 0.000000 0.000000 0.000000
									}
								}
							}
						}
					}
				}
				JOINT RightShoulder
				{
					OFFSET 0.000000 0.000000 0.000000
					CHANNELS 3 Zrotation Yrotation Xrotation
					JOINT RightArm
					{
						OFFSET -3.136600 1.374050 -0.404650
						CHANNELS 3 Zrotation Yrotation Xrotation
						JOINT RightForeArm
						{
							OFFSET -5.241900 -0.000000 -0.000000
							CHANNELS 3 Zrotation Yrotation Xrotation
							JOINT RightHand
							{
								OFFSET -3.444170 -0.000000 -0.000000
								CHANNELS 3 Zrotation Yrotation Xrotation
								JOINT RightFingerBase
								{
									OFFSET 0.000000 0.000000 0.000000
									CHANNELS 3 Zrotation Yrotation Xrotation
									JOINT RightHandIndex1
									{
										OFFSET -0.622530 -0.000000 -0.000000
										CHANNELS 3 Zrotation Yrotation Xrotation
										End Site
										{
											OFFSET 0.000000 0.000000 0.000000
										}
									}
								}
								JOINT RThumb
								{
									OFFSET 0.000000 0.000000 0.000000
									CHANNELS 3 Zrotation Yrotation Xrotation
									End Site
									{
										OFFSET 0.000000 0.000000 0.000000
									}
								}
							}
						}
					}
				}
			}
		}
	}
}
MOTION
Frames: 10
Frame Time: 0.008333
9.064964 17.444729 -34.504360 -7.053034 0.995593 3.884821 -5.561548 -4.278195 -2.501128 -2.111193 -2.812378 -30.787842 2.761491 12.208638 34.842275 0.923414 -4.368254 -0.360764 0.088900 -1.923200 -5.293400 5.998748 3.032073 1.088201 26.136648 -5.205136 -3.781954 0.195405 -7.198977 17.800521 -0.569365 0.092041 -4.582608 -0.047800 -1.410300 3.878400 8.254155 1.791944 8.313000 1.824310 3.041758 -3.086269 1.352657 1.685316 -0.155122 -7.825838 -2.816186 -13.362450 2.768575 -2.661761 16.178333 2.117300 -1.977900 12.042200 -0.158196 -1.619752 0.184693 -87.010146 5.064383 27.806871 21.853194 -34.145831 -7.090138 -0.204819 0.020550 -3.964467 16.745799 21.806419 6.441900 -7.125000 0.000000 0.000000 -12.116800 52.213000 -2.177700 2.247425 1.759966 -0.292578 75.683617 7.636102 18.420059 -15.766176 24.784642 -4.214805 0.492336 -0.215724 -9.407373 -19.031489 11.636674 -4.177200 7.125000 0.000000 0.000000 5.373900 -17.398300 3.536900 
9.054916 17.443191 -34.398551 -7.087209 0.681063 3.991387 -5.633971 -4.318798 -2.517392 -2.115374 -2.408216 -31.116871 2.329797 11.652937 32.951395 0.954507 -4.403629 0.233797 0.097900 -2.017500 -5.554000 5.960240 3.020319 1.113690 26.250957 -4.793488 -3.108645 0.239866 -7.055407 17.396791 -0.519128 -0.153467 -4.649146 -0.051300 -1.461200 4.018800 7.780970 1.310066 8.516810 2.140097 2.420224 -3.181884 2.691784 1.351968 -0.555566 -9.213690 -2.220270 -13.495894 2.867440 -1.406678 16.450655 2.541200 -1.602400 12.207500 -0.079884 -1.685000 0.147135 -88.796018 5.582528 25.464226 21.650006 -33.959768 -6.998997 -0.206913 0.050569 -3.430058 16.771947 21.863527 6.460200 -7.125000 0.000000 0.000000 -12.101500 52.245000 -2.184500 2.332741 1.802231 -0.312459 74.381937 7.887547 20.933904 -15.820637 24.808756 -4.216441 0.513894 -0.205182 -9.954582 -19.396065 11.433117 -4.193600 7.125000 0.000000 0.000000 5.100500 -17.583600 3.334700 
9.051430 17.449548 -34.286692 -7.014704 0.515015 4.131111 -5.649660 -4.387774 -2.587363 -2.380224 -2.024104 -31.373549 1.900585 11.060358 31.018913 1.017336 -4.652030 0.880972 0.141700 -2.425800 -6.684000 5.991295 3.030171 1.121784 26.074094 -4.970678 -2.732707 0.262346 -6.964643 17.132811 -0.596693 0.219458 -4.520267 -0.069800 -1.704200 4.688800 7.951313 1.554766 7.877384 1.995795 2.646086 -3.003605 2.170177 1.500900 0.310004 -8.901240 -2.369493 -13.615633 2.977141 -1.713633 16.285318 2.537000 -1.676300 12.087700 -0.112981 -1.589491 0.180859 -88.379742 4.924820 25.873189 21.296419 -33.600558 -6.812619 -0.201084 0.038058 -3.157368 16.462105 21.862412 6.338400 -7.125000 0.000000 0.000000 -12.417400 52.204900 -2.230600 2.271758 1.765286 -0.267133 74.753874 8.474667 20.507414 -15.941764 24.993811 -4.280823 0.509770 -0.189348 -10.045828 -19.276248 11.226613 -4.088100 7.125000 0.000000 0.000000 5.181000 -17.827500 3.359800 
9.049072 17.452213 -34.171450 -6.869905 0.243924 4.291825 -5.699753 -4.441817 -2.625881 -2.635731 -1.740626 -31.666760 1.511158 10.486905 29.183332 1.089585 -4.946464 1.370920 0.138800 -2.401300 -6.616200 5.998994 3.029490 1.170713 25.802186 -5.200015 -2.298623 0.300625 -6.797727 16.679041 -0.697606 0.734626 -4.169190 -0.064200 -1.634600 4.496900 7.650484 1.683000 7.787578 2.002502 2.787759 -3.025825 2.387529 1.573605 0.268437 -8.957834 -2.360841 -13.595517 2.954054 -1.683318 16.316040 2.526400 -1.671400 12.102100 -0.097833 -1.588324 0.174351 -88.596850 5.143510 25.861763 21.201085 -33.507612 -6.756855 -0.199533 0.038552 -3.108705 15.840940 21.558251 6.010300 -7.125000 0.000000 0.000000 -12.904900 51.796200 -2.190000 2.278486 1.774313 -0.272246 74.625637 8.479358 20.656306 -16.062499 25.137383 -4.333802 0.489625 -0.173363 -10.130581 -18.802092 11.070236 -3.919100 7.125000 0.000000 0.000000 5.522700 -18.050000 3.556300 
9.048867 17.436322 -34.057028 -7.231216 -0.019976 4.411036 -5.691412 -4.482646 -2.688154 -2.269169 -1.751907 -31.830539 1.179920 9.920961 27.431581 1.143245 -5.072520 1.816303 0.082300 -1.850800 -5.093600 6.018569 3.009235 1.198933 26.154879 -4.816118 -1.551057 0.358370 -6.604958 16.111932 -0.664789 0.576751 -4.132024 -0.059500 -1.573600 4.328600 8.228976 1.800775 7.686537 1.932409 2.952683 -3.013510 1.861747 1.675391 0.401238 -8.687141 -2.382614 -13.686902 2.987515 -1.788565 16.317709 2.504800 -1.686000 12.124200 -0.117310 -1.567778 0.176688 -88.280656 5.100771 26.007964 20.980660 -33.254102 -6.636416 -0.196314 0.030088 -3.223854 15.838087 21.420125 5.973900 -7.125000 0.000000 0.000000 -12.858200 51.666600 -2.140600 2.244834 1.771533 -0.272359 74.964908 8.514485 20.870831 -16.248181 25.383442 -4.422148 0.483029 -0.166466 -10.272517 -18.730494 11.041765 -3.890200 7.125000 0.000000 0.000000 5.576600 -18.092900 3.586000 
9.047124 17.423505 -33.936249 -7.605479 -0.256728 4.471251 -5.701256 -4.509468 -2.724968 -1.845560 -1.926719 -31.949808 0.904665 9.410684 25.879178 1.186433 -5.148959 2.146533 0.062900 -1.618300 -4.452000 6.014156 2.996804 1.278846 26.502540 -5.370614 -1.094727 0.410944 -6.347752 15.400661 -0.717949 0.858393 -3.956387 -0.019000 -0.889000 2.443500 8.536752 1.886541 8.050348 1.947661 3.147257 -3.178990 1.730358 1.759649 -0.302949 -8.435890 -2.305727 -13.379835 2.877316 -1.766829 16.378019 2.389100 -1.666400 12.121600 -0.103885 -1.621666 0.152035 -88.309540 5.650228 26.014667 20.680663 -32.910376 -6.477300 -0.202112 0.032252 -3.054542 16.207890 21.835752 6.232100 -7.125000 0.000000 0.000000 -12.657700 52.141200 -2.254900 2.256628 1.797420 -0.313470 75.066772 7.865861 21.181514 -16.464081 25.644649 -4.521987 0.468535 -0.171632 -10.341078 -18.586174 11.331914 -3.954100 7.125000 0.000000 0.000000 5.693100 -17.798000 3.698800 
9.043023 17.420737 -33.813728 -7.610896 -0.669331 4.670193 -5.706149 -4.564272 -2.815917 -1.854883 -1.797324 -32.305009 0.672705 8.979685 24.567388 1.245470 -5.383653 2.444530 0.122300 -2.254600 -6.209900 5.996095 2.985780 1.318994 26.308596 -5.652334 -0.429703 0.477270 -6.024237 14.516102 -0.898128 1.825592 -3.276814 -0.080500 -1.830500 5.037500 8.345147 2.040493 7.520653 1.987201 3.256802 -3.069535 2.016956 1.836843 0.271050 -8.449770 -2.280066 -13.472933 2.752546 -1.712821 16.243950 2.307500 -1.644100 11.998400 -0.072143 -1.577680 0.169691 -88.628736 5.278468 25.846136 20.245877 -32.484122 -6.265993 -0.201515 0.037727 -2.674949 16.396558 22.124937 6.384800 -7.125000 0.000000 0.000000 -12.589600 52.457300 -2.340900 2.288630 1.773598 -0.280539 74.858980 8.530186 21.164592 -16.253552 25.386184 -4.425736 0.465137 -0.196074 -10.048698 -18.564972 11.758212 -4.098100 7.125000 0.000000 0.000000 5.719900 -17.331400 3.775200 
9.044868 17.424223 -33.694692 -7.690398 -1.040294 4.747474 -5.692467 -4.599000 -2.868083 -1.835446 -1.624966 -32.590968 0.475823 8.574457 23.376384 1.305825 -5.646691 2.836963 0.181500 -2.744000 -7.566900 6.001637 2.959564 1.379360 26.261919 -5.771505 0.285688 0.538328 -5.722866 13.681257 -0.951600 2.145124 -2.763071 -0.082700 -1.854900 5.104700 8.570761 2.052078 7.602382 1.926860 3.289970 -3.105544 1.684317 1.861703 0.162992 -8.329392 -2.172288 -13.558850 2.769020 -1.589273 16.332121 2.318900 -1.583400 12.075400 -0.088948 -1.591439 0.159070 -88.540595 5.453485 25.564680 19.876219 -32.052806 -6.072619 -0.196560 0.035897 -2.326569 16.402156 21.688515 6.267100 -7.125000 0.000000 0.000000 -12.411900 52.026300 -2.174800 2.271899 1.792847 -0.284641 75.102641 8.784086 21.496433 -16.116017 25.196853 -4.354938 0.477974 -0.208600 -9.905731 -18.882976 11.721906 -4.166700 7.125000 0.000000 0.000000 5.490000 -17.327800 3.622500 
9.043535 17.424428 -33.575041 -7.952863 -1.302106 4.797150 -5.695679 -4.614070 -2.917465 -1.398723 -2.025312 -32.611818 0.314041 8.219914 22.315741 1.306511 -5.524101 3.145065 0.166200 -2.626300 -7.240000 5.990012 2.932924 1.428482 26.490620 -5.772708 1.031875 0.587741 -5.461975 12.952748 -0.960484 2.218011 -2.526099 -0.099700 -2.036400 5.606400 8.739083 2.091849 7.725882 1.960108 3.372587 -3.161609 1.725402 1.899716 -0.070054 -8.392226 -2.115176 -13.469953 2.813013 -1.498645 16.426565 2.366800 -1.554300 12.124200 -0.080706 -1.604506 0.146261 -88.713097 5.829982 25.444144 19.554624 -31.686966 -5.903544 -0.190799 0.040800 -1.971297 16.377810 20.976555 6.059500 -7.125000 0.000000 0.000000 -12.159700 51.307300 -1.913100 2.275307 1.807795 -0.299905 75.062194 8.615466 21.938593 -16.278399 25.386878 -4.423659 0.490042 -0.189725 -10.095391 -19.117565 11.349123 -4.090100 7.125000 0.000000 0.000000 5.308400 -17.715100 3.456300 
9.037281 17.414791 -33.453647 -8.139718 -1.680468 4.951396 -5.682080 -4.634306 -2.996475 -0.924428 -2.534837 -32.659354 0.193760 7.941988 21.474423 1.269065 -5.185489 3.225624 0.192900 -2.828600 -7.802000 5.974555 2.913939 1.468426 26.590829 -6.016385 1.633346 0.626588 -5.211607 12.264079 -1.018399 2.558930 -2.212608 -0.077200 -1.792100 4.931500 8.805593 2.208562 7.462419 1.963174 3.489316 -3.126449 1.739827 1.969708 0.145387 -8.362041 -2.106304 -13.366474 2.824264 -1.506777 16.392522 2.367700 -1.551000 12.051200 -0.072541 -1.571676 0.154356 -88.771699 5.966670 25.447210 19.350366 -31.476307 -5.801370 -0.185922 0.039249 -1.999023 16.200656 20.598932 5.887700 -7.125000 0.000000 0.000000 -12.193600 50.902200 -1.796100 2.268292 1.789675 -0.293657 75.194984 8.658442 22.085108 -16.411363 25.566185 -4.488760 0.480898 -0.190919 -9.900501 -19.055755 11.488463 -4.121700 7.125000 0.000000 0.000000 5.360200 -17.576500 3.506700 
